<svg width="370" height="261" viewBox="0 0 370 261" fill="none" xmlns="http://www.w3.org/2000/svg">
<g filter="url(#filter0_bd_113_1423)">
<mask id="path-1-inside-1_113_1423" fill="white">
<path fill-rule="evenodd" clip-rule="evenodd" d="M265.5 195.997C265.666 195.999 265.833 196 266 196C289.748 196 309 176.748 309 153C309 129.252 289.748 110 266 110C265.833 110 265.666 110.001 265.5 110.003V110H254.391C254.793 107.057 255 104.053 255 101C255 64.5492 225.451 35 189 35C152.549 35 123 64.5492 123 101C123 104.439 123.263 107.817 123.77 111.115C120.631 110.386 117.361 110 114 110C90.2518 110 71 129.252 71 153C71 176.748 90.2518 196 114 196C114.168 196 114.335 195.999 114.502 195.997L114.5 196H265.5V195.997Z"/>
</mask>
<path fill-rule="evenodd" clip-rule="evenodd" d="M265.5 195.997C265.666 195.999 265.833 196 266 196C289.748 196 309 176.748 309 153C309 129.252 289.748 110 266 110C265.833 110 265.666 110.001 265.5 110.003V110H254.391C254.793 107.057 255 104.053 255 101C255 64.5492 225.451 35 189 35C152.549 35 123 64.5492 123 101C123 104.439 123.263 107.817 123.77 111.115C120.631 110.386 117.361 110 114 110C90.2518 110 71 129.252 71 153C71 176.748 90.2518 196 114 196C114.168 196 114.335 195.999 114.502 195.997L114.5 196H265.5V195.997Z" fill="url(#paint0_linear_113_1423)" shape-rendering="crispEdges"/>
<path d="M265.5 195.997L265.523 193.997C264.988 193.991 264.474 194.199 264.094 194.575C263.714 194.951 263.5 195.463 263.5 195.997H265.5ZM265.5 110.003H263.5C263.5 110.537 263.714 111.049 264.094 111.425C264.474 111.801 264.988 112.009 265.523 112.003L265.5 110.003ZM265.5 110H267.5C267.5 108.895 266.605 108 265.5 108V110ZM254.391 110L252.41 109.73C252.332 110.302 252.505 110.88 252.885 111.315C253.265 111.75 253.814 112 254.391 112V110ZM123.77 111.115L123.318 113.063C123.964 113.213 124.643 113.033 125.13 112.582C125.617 112.13 125.848 111.467 125.747 110.811L123.77 111.115ZM114.502 195.997L116.072 197.237C116.549 196.632 116.637 195.807 116.297 195.115C115.957 194.423 115.25 193.988 114.479 193.997L114.502 195.997ZM114.5 196L112.931 194.76C112.455 195.362 112.366 196.182 112.7 196.872C113.034 197.562 113.733 198 114.5 198V196ZM265.5 196V198C266.605 198 267.5 197.105 267.5 196H265.5ZM265.477 197.997C265.651 197.999 265.825 198 266 198V194C265.841 194 265.682 193.999 265.523 193.997L265.477 197.997ZM266 198C290.853 198 311 177.853 311 153H307C307 175.644 288.644 194 266 194V198ZM311 153C311 128.147 290.853 108 266 108V112C288.644 112 307 130.356 307 153H311ZM266 108C265.826 108 265.651 108.001 265.477 108.003L265.523 112.003C265.682 112.001 265.841 112 266 112V108ZM263.5 110V110.003H267.5V110H263.5ZM254.391 112H265.5V108H254.391V112ZM256.373 110.27C256.787 107.238 257 104.143 257 101H253C253 103.962 252.799 106.876 252.41 109.73L256.373 110.27ZM257 101C257 63.4446 226.555 33 189 33V37C224.346 37 253 65.6538 253 101H257ZM189 33C151.445 33 121 63.4446 121 101H125C125 65.6538 153.654 37 189 37V33ZM121 101C121 104.542 121.271 108.021 121.793 111.419L125.747 110.811C125.255 107.614 125 104.337 125 101H121ZM124.223 109.167C120.937 108.403 117.514 108 114 108V112C117.207 112 120.326 112.368 123.318 113.063L124.223 109.167ZM114 108C89.1472 108 69 128.147 69 153H73C73 130.356 91.3563 112 114 112V108ZM69 153C69 177.853 89.1472 198 114 198V194C91.3563 194 73 175.644 73 153H69ZM114 198C114.175 198 114.35 197.999 114.525 197.997L114.479 193.997C114.32 193.999 114.16 194 114 194V198ZM116.069 197.24L116.072 197.237L112.933 194.757L112.931 194.76L116.069 197.24ZM265.5 194H114.5V198H265.5V194ZM263.5 195.997V196H267.5V195.997H263.5Z" fill="url(#paint1_linear_113_1423)" mask="url(#path-1-inside-1_113_1423)"/>
</g>
<rect x="98" y="209" width="184" height="15" rx="7.5" fill="url(#paint2_linear_113_1423)" fill-opacity="0.56"/>
<rect x="99" y="210" width="182" height="13" rx="6.5" stroke="#9E6CFF" stroke-opacity="0.4" stroke-width="2"/>
<rect x="98" y="234" width="184" height="15" rx="7.5" fill="url(#paint3_linear_113_1423)" fill-opacity="0.56"/>
<rect x="99" y="235" width="182" height="13" rx="6.5" stroke="#9E6CFF" stroke-opacity="0.4" stroke-width="2"/>
<g filter="url(#filter1_bd_113_1423)">
<mask id="path-7-inside-2_113_1423" fill="white">
<path fill-rule="evenodd" clip-rule="evenodd" d="M309.563 151.351C309.683 151.352 309.804 151.353 309.924 151.353C327.087 151.353 341 137.44 341 120.277C341 103.115 327.087 89.2017 309.924 89.2017C309.804 89.2017 309.683 89.2024 309.563 89.2037V89.2017H301.535C301.825 87.075 301.975 84.9037 301.975 82.6975C301.975 56.3549 280.62 35 254.277 35C227.935 35 206.58 56.3549 206.58 82.6975C206.58 85.1831 206.77 87.6243 207.136 90.0074C204.868 89.4803 202.504 89.2017 200.076 89.2017C182.913 89.2017 169 103.115 169 120.277C169 137.44 182.913 151.353 200.076 151.353C200.197 151.353 200.318 151.352 200.439 151.351L200.437 151.353H309.563V151.351Z"/>
</mask>
<path fill-rule="evenodd" clip-rule="evenodd" d="M309.563 151.351C309.683 151.352 309.804 151.353 309.924 151.353C327.087 151.353 341 137.44 341 120.277C341 103.115 327.087 89.2017 309.924 89.2017C309.804 89.2017 309.683 89.2024 309.563 89.2037V89.2017H301.535C301.825 87.075 301.975 84.9037 301.975 82.6975C301.975 56.3549 280.62 35 254.277 35C227.935 35 206.58 56.3549 206.58 82.6975C206.58 85.1831 206.77 87.6243 207.136 90.0074C204.868 89.4803 202.504 89.2017 200.076 89.2017C182.913 89.2017 169 103.115 169 120.277C169 137.44 182.913 151.353 200.076 151.353C200.197 151.353 200.318 151.352 200.439 151.351L200.437 151.353H309.563V151.351Z" fill="url(#paint4_linear_113_1423)" shape-rendering="crispEdges"/>
<path d="M309.563 151.351L309.586 149.351C309.052 149.345 308.537 149.553 308.157 149.929C307.777 150.304 307.563 150.816 307.563 151.351H309.563ZM309.563 89.2037H307.563C307.563 89.7381 307.777 90.2503 308.157 90.626C308.537 91.0017 309.051 91.2097 309.586 91.2036L309.563 89.2037ZM309.563 89.2017H311.563C311.563 88.0971 310.668 87.2017 309.563 87.2017V89.2017ZM301.535 89.2017L299.553 88.9315C299.475 89.5037 299.649 90.0818 300.028 90.5169C300.408 90.952 300.957 91.2017 301.535 91.2017V89.2017ZM207.136 90.0074L206.684 91.9555C207.33 92.1057 208.009 91.9253 208.496 91.4741C208.983 91.0228 209.214 90.3594 209.113 89.7033L207.136 90.0074ZM200.439 151.351L202.008 152.59C202.486 151.985 202.573 151.16 202.233 150.468C201.893 149.777 201.186 149.342 200.416 149.351L200.439 151.351ZM200.437 151.353L198.867 150.114C198.392 150.715 198.303 151.535 198.637 152.225C198.971 152.915 199.67 153.353 200.437 153.353V151.353ZM309.563 151.353V153.353C310.668 153.353 311.563 152.458 311.563 151.353H309.563ZM309.54 153.351C309.668 153.352 309.796 153.353 309.924 153.353V149.353C309.811 149.353 309.699 149.352 309.586 149.351L309.54 153.351ZM309.924 153.353C328.192 153.353 343 138.544 343 120.277H339C339 136.335 325.982 149.353 309.924 149.353V153.353ZM343 120.277C343 102.01 328.192 87.2017 309.924 87.2017V91.2017C325.982 91.2017 339 104.219 339 120.277H343ZM309.924 87.2017C309.796 87.2017 309.668 87.2024 309.54 87.2039L309.586 91.2036C309.698 91.2023 309.811 91.2017 309.924 91.2017V87.2017ZM307.563 89.2017V89.2037H311.563V89.2017H307.563ZM301.535 91.2017H309.563V87.2017H301.535V91.2017ZM303.517 89.4719C303.819 87.2559 303.975 84.9944 303.975 82.6975H299.975C299.975 84.8131 299.831 86.8941 299.553 88.9315L303.517 89.4719ZM303.975 82.6975C303.975 55.2503 281.724 33 254.277 33V37C279.515 37 299.975 57.4595 299.975 82.6975H303.975ZM254.277 33C226.83 33 204.58 55.2503 204.58 82.6975H208.58C208.58 57.4595 229.039 37 254.277 37V33ZM204.58 82.6975C204.58 85.2852 204.778 87.8281 205.16 90.3114L209.113 89.7033C208.762 87.4205 208.58 85.081 208.58 82.6975H204.58ZM207.589 88.0592C205.173 87.498 202.658 87.2017 200.076 87.2017V91.2017C202.351 91.2017 204.563 91.4627 206.684 91.9555L207.589 88.0592ZM200.076 87.2017C181.808 87.2017 167 102.01 167 120.277H171C171 104.219 184.018 91.2017 200.076 91.2017V87.2017ZM167 120.277C167 138.544 181.808 153.353 200.076 153.353V149.353C184.018 149.353 171 136.335 171 120.277H167ZM200.076 153.353C200.204 153.353 200.333 153.352 200.461 153.351L200.416 149.351C200.303 149.352 200.189 149.353 200.076 149.353V153.353ZM202.007 152.592L202.008 152.59L198.869 150.112L198.867 150.114L202.007 152.592ZM309.563 149.353H200.437V153.353H309.563V149.353ZM307.563 151.351V151.353H311.563V151.351H307.563Z" fill="url(#paint5_linear_113_1423)" mask="url(#path-7-inside-2_113_1423)"/>
</g>
<defs>
<filter id="filter0_bd_113_1423" x="0" y="0" width="338" height="261" filterUnits="userSpaceOnUse" color-interpolation-filters="sRGB">
<feFlood flood-opacity="0" result="BackgroundImageFix"/>
<feGaussianBlur in="BackgroundImageFix" stdDeviation="7"/>
<feComposite in2="SourceAlpha" operator="in" result="effect1_backgroundBlur_113_1423"/>
<feColorMatrix in="SourceAlpha" type="matrix" values="0 0 0 0 0 0 0 0 0 0 0 0 0 0 0 0 0 0 127 0" result="hardAlpha"/>
<feOffset dx="-21" dy="15"/>
<feGaussianBlur stdDeviation="25"/>
<feComposite in2="hardAlpha" operator="out"/>
<feColorMatrix type="matrix" values="0 0 0 0 0.113725 0 0 0 0 0.14902 0 0 0 0 0.27451 0 0 0 0.25 0"/>
<feBlend mode="normal" in2="effect1_backgroundBlur_113_1423" result="effect2_dropShadow_113_1423"/>
<feBlend mode="normal" in="SourceGraphic" in2="effect2_dropShadow_113_1423" result="shape"/>
</filter>
<filter id="filter1_bd_113_1423" x="98" y="0" width="272" height="216.353" filterUnits="userSpaceOnUse" color-interpolation-filters="sRGB">
<feFlood flood-opacity="0" result="BackgroundImageFix"/>
<feGaussianBlur in="BackgroundImageFix" stdDeviation="7"/>
<feComposite in2="SourceAlpha" operator="in" result="effect1_backgroundBlur_113_1423"/>
<feColorMatrix in="SourceAlpha" type="matrix" values="0 0 0 0 0 0 0 0 0 0 0 0 0 0 0 0 0 0 127 0" result="hardAlpha"/>
<feOffset dx="-21" dy="15"/>
<feGaussianBlur stdDeviation="25"/>
<feComposite in2="hardAlpha" operator="out"/>
<feColorMatrix type="matrix" values="0 0 0 0 0.113438 0 0 0 0 0.148981 0 0 0 0 0.275 0 0 0 0.25 0"/>
<feBlend mode="normal" in2="effect1_backgroundBlur_113_1423" result="effect2_dropShadow_113_1423"/>
<feBlend mode="normal" in="SourceGraphic" in2="effect2_dropShadow_113_1423" result="shape"/>
</filter>
<linearGradient id="paint0_linear_113_1423" x1="190" y1="-16.5" x2="190" y2="218.5" gradientUnits="userSpaceOnUse">
<stop stop-color="white"/>
<stop offset="1" stop-color="white" stop-opacity="0"/>
</linearGradient>
<linearGradient id="paint1_linear_113_1423" x1="190" y1="35" x2="190" y2="196" gradientUnits="userSpaceOnUse">
<stop stop-color="white"/>
<stop offset="1" stop-color="white" stop-opacity="0"/>
</linearGradient>
<linearGradient id="paint2_linear_113_1423" x1="190" y1="209" x2="190" y2="224" gradientUnits="userSpaceOnUse">
<stop stop-color="white"/>
<stop offset="1" stop-color="#A777FF" stop-opacity="0.15"/>
</linearGradient>
<linearGradient id="paint3_linear_113_1423" x1="190" y1="234" x2="190" y2="249" gradientUnits="userSpaceOnUse">
<stop stop-color="white"/>
<stop offset="1" stop-color="#A777FF" stop-opacity="0.15"/>
</linearGradient>
<linearGradient id="paint4_linear_113_1423" x1="263" y1="38.5" x2="263" y2="164.5" gradientUnits="userSpaceOnUse">
<stop stop-color="white"/>
<stop offset="1" stop-color="white" stop-opacity="0"/>
</linearGradient>
<linearGradient id="paint5_linear_113_1423" x1="255" y1="35" x2="255" y2="151.353" gradientUnits="userSpaceOnUse">
<stop stop-color="white"/>
<stop offset="1" stop-color="white" stop-opacity="0"/>
</linearGradient>
</defs>
</svg>
