<svg width="404" height="392" viewBox="0 0 404 392" fill="none" xmlns="http://www.w3.org/2000/svg">
<g filter="url(#filter0_f_102_1515)">
<circle cx="244" cy="105" r="61" fill="#FFC701" fill-opacity="0.5"/>
</g>
<circle cx="244" cy="107" r="57.5" fill="url(#paint0_linear_102_1515)" stroke="url(#paint1_linear_102_1515)" stroke-width="3"/>
<mask id="mask0_102_1515" style="mask-type:alpha" maskUnits="userSpaceOnUse" x="185" y="81" width="118" height="85">
<path d="M303 107C303 139.585 276.585 166 244 166C211.415 166 185 139.585 185 107C185 74.4152 206.915 82 239.5 82C272.085 82 303 74.4152 303 107Z" fill="url(#paint2_linear_102_1515)"/>
</mask>
<g mask="url(#mask0_102_1515)">
<g filter="url(#filter1_f_102_1515)">
<path fill-rule="evenodd" clip-rule="evenodd" d="M290.5 257.997C290.666 257.999 290.833 258 291 258C314.748 258 334 238.748 334 215C334 191.252 314.748 172 291 172C290.833 172 290.666 172.001 290.5 172.003V172H263.087C263.688 168.423 264 164.748 264 161C264 124.549 234.451 95 198 95C161.549 95 132 124.549 132 161C132 164.894 132.337 168.709 132.984 172.418C112.084 175.343 96 193.293 96 215C96 238.748 115.252 258 139 258C139.168 258 139.335 257.999 139.502 257.997L139.5 258H290.5V257.997Z" fill="#E18700"/>
</g>
</g>
<g filter="url(#filter2_bd_102_1515)">
<mask id="path-5-inside-1_102_1515" fill="white">
<path fill-rule="evenodd" clip-rule="evenodd" d="M265.5 262.997C265.666 262.999 265.833 263 266 263C289.748 263 309 243.748 309 220C309 196.252 289.748 177 266 177C265.833 177 265.666 177.001 265.5 177.003V177H254.391C254.793 174.057 255 171.053 255 168C255 131.549 225.451 102 189 102C152.549 102 123 131.549 123 168C123 171.439 123.263 174.817 123.77 178.115C120.631 177.386 117.361 177 114 177C90.2518 177 71 196.252 71 220C71 243.748 90.2518 263 114 263C114.168 263 114.335 262.999 114.502 262.997L114.5 263H265.5V262.997Z"/>
</mask>
<path fill-rule="evenodd" clip-rule="evenodd" d="M265.5 262.997C265.666 262.999 265.833 263 266 263C289.748 263 309 243.748 309 220C309 196.252 289.748 177 266 177C265.833 177 265.666 177.001 265.5 177.003V177H254.391C254.793 174.057 255 171.053 255 168C255 131.549 225.451 102 189 102C152.549 102 123 131.549 123 168C123 171.439 123.263 174.817 123.77 178.115C120.631 177.386 117.361 177 114 177C90.2518 177 71 196.252 71 220C71 243.748 90.2518 263 114 263C114.168 263 114.335 262.999 114.502 262.997L114.5 263H265.5V262.997Z" fill="url(#paint3_linear_102_1515)" shape-rendering="crispEdges"/>
<path d="M265.5 262.997L265.534 259.997C264.733 259.988 263.961 260.3 263.391 260.864C262.821 261.427 262.5 262.196 262.5 262.997H265.5ZM265.5 177.003H262.5C262.5 177.804 262.821 178.573 263.391 179.136C263.961 179.7 264.733 180.012 265.534 180.003L265.5 177.003ZM265.5 177H268.5C268.5 175.343 267.157 174 265.5 174V177ZM254.391 177L251.419 176.595C251.302 177.453 251.562 178.32 252.131 178.973C252.701 179.625 253.525 180 254.391 180V177ZM123.77 178.115L123.091 181.037C124.061 181.262 125.08 180.992 125.81 180.315C126.54 179.638 126.887 178.643 126.735 177.659L123.77 178.115ZM114.502 262.997L116.856 264.857C117.573 263.95 117.705 262.711 117.195 261.674C116.685 260.636 115.624 259.984 114.468 259.997L114.502 262.997ZM114.5 263L112.146 261.14C111.433 262.043 111.299 263.273 111.8 264.308C112.301 265.343 113.35 266 114.5 266V263ZM265.5 263V266C267.157 266 268.5 264.657 268.5 263H265.5ZM265.466 265.997C265.644 265.999 265.822 266 266 266V260C265.845 260 265.689 259.999 265.534 259.997L265.466 265.997ZM266 266C291.405 266 312 245.405 312 220H306C306 242.091 288.091 260 266 260V266ZM312 220C312 194.595 291.405 174 266 174V180C288.091 180 306 197.909 306 220H312ZM266 174C265.822 174 265.644 174.001 265.466 174.003L265.534 180.003C265.689 180.001 265.844 180 266 180V174ZM262.5 177V177.003H268.5V177H262.5ZM254.391 180H265.5V174H254.391V180ZM257.364 177.405C257.783 174.329 258 171.189 258 168H252C252 170.917 251.802 173.786 251.419 176.595L257.364 177.405ZM258 168C258 129.892 227.108 99 189 99V105C223.794 105 252 133.206 252 168H258ZM189 99C150.892 99 120 129.892 120 168H126C126 133.206 154.206 105 189 105V99ZM120 168C120 171.593 120.275 175.123 120.805 178.571L126.735 177.659C126.251 174.512 126 171.286 126 168H120ZM124.449 175.193C121.089 174.412 117.591 174 114 174V180C117.131 180 120.174 180.359 123.091 181.037L124.449 175.193ZM114 174C88.5949 174 68 194.595 68 220H74C74 197.909 91.9086 180 114 180V174ZM68 220C68 245.405 88.5949 266 114 266V260C91.9086 260 74 242.091 74 220H68ZM114 266C114.179 266 114.358 265.999 114.536 265.997L114.468 259.997C114.312 259.999 114.156 260 114 260V266ZM116.854 264.86L116.856 264.857L112.148 261.138L112.146 261.14L116.854 264.86ZM265.5 260H114.5V266H265.5V260ZM262.5 262.997V263H268.5V262.997H262.5Z" fill="url(#paint4_linear_102_1515)" mask="url(#path-5-inside-1_102_1515)"/>
</g>
<g filter="url(#filter3_bd_102_1515)">
<mask id="path-7-inside-2_102_1515" fill="white">
<path fill-rule="evenodd" clip-rule="evenodd" d="M343.563 218.351C343.683 218.352 343.804 218.353 343.924 218.353C361.087 218.353 375 204.44 375 187.277C375 170.115 361.087 156.202 343.924 156.202C343.804 156.202 343.683 156.202 343.563 156.204V156.202H335.535C335.825 154.075 335.975 151.904 335.975 149.697C335.975 123.355 314.62 102 288.277 102C261.935 102 240.58 123.355 240.58 149.697C240.58 152.183 240.77 154.624 241.136 157.007C238.868 156.48 236.504 156.202 234.076 156.202C216.913 156.202 203 170.115 203 187.277C203 204.44 216.913 218.353 234.076 218.353C234.197 218.353 234.318 218.352 234.439 218.351L234.437 218.353H343.563V218.351Z"/>
</mask>
<path fill-rule="evenodd" clip-rule="evenodd" d="M343.563 218.351C343.683 218.352 343.804 218.353 343.924 218.353C361.087 218.353 375 204.44 375 187.277C375 170.115 361.087 156.202 343.924 156.202C343.804 156.202 343.683 156.202 343.563 156.204V156.202H335.535C335.825 154.075 335.975 151.904 335.975 149.697C335.975 123.355 314.62 102 288.277 102C261.935 102 240.58 123.355 240.58 149.697C240.58 152.183 240.77 154.624 241.136 157.007C238.868 156.48 236.504 156.202 234.076 156.202C216.913 156.202 203 170.115 203 187.277C203 204.44 216.913 218.353 234.076 218.353C234.197 218.353 234.318 218.352 234.439 218.351L234.437 218.353H343.563V218.351Z" fill="url(#paint5_linear_102_1515)" shape-rendering="crispEdges"/>
<path d="M343.563 218.351L343.597 215.351C342.796 215.342 342.024 215.654 341.454 216.217C340.884 216.781 340.563 217.549 340.563 218.351H343.563ZM343.563 156.204H340.563C340.563 157.005 340.884 157.774 341.454 158.337C342.024 158.901 342.796 159.213 343.597 159.204L343.563 156.204ZM343.563 156.202H346.563C346.563 154.545 345.22 153.202 343.563 153.202V156.202ZM335.535 156.202L332.563 155.796C332.445 156.655 332.705 157.522 333.275 158.175C333.845 158.827 334.669 159.202 335.535 159.202V156.202ZM241.136 157.007L240.458 159.93C241.427 160.155 242.446 159.884 243.176 159.207C243.906 158.531 244.253 157.535 244.102 156.551L241.136 157.007ZM234.439 218.351L236.793 220.21C237.509 219.303 237.641 218.065 237.131 217.027C236.621 215.99 235.56 215.338 234.404 215.351L234.439 218.351ZM234.437 218.353L232.082 216.494C231.37 217.396 231.236 218.627 231.737 219.661C232.239 220.696 233.287 221.353 234.437 221.353V218.353ZM343.563 218.353V221.353C345.22 221.353 346.563 220.01 346.563 218.353H343.563ZM343.529 221.351C343.661 221.352 343.792 221.353 343.924 221.353V215.353C343.815 215.353 343.706 215.352 343.597 215.351L343.529 221.351ZM343.924 221.353C362.744 221.353 378 206.097 378 187.277H372C372 202.783 359.43 215.353 343.924 215.353V221.353ZM378 187.277C378 168.458 362.744 153.202 343.924 153.202V159.202C359.43 159.202 372 171.772 372 187.277H378ZM343.924 153.202C343.792 153.202 343.661 153.202 343.529 153.204L343.597 159.204C343.706 159.202 343.815 159.202 343.924 159.202V153.202ZM340.563 156.202V156.204H346.563V156.202H340.563ZM335.535 159.202H343.563V153.202H335.535V159.202ZM338.508 156.607C338.816 154.346 338.975 152.04 338.975 149.697H332.975C332.975 151.768 332.834 153.804 332.563 155.796L338.508 156.607ZM338.975 149.697C338.975 121.698 316.277 99 288.277 99V105C312.963 105 332.975 125.012 332.975 149.697H338.975ZM288.277 99C260.278 99 237.58 121.698 237.58 149.697H243.58C243.58 125.012 263.592 105 288.277 105V99ZM237.58 149.697C237.58 152.336 237.782 154.93 238.171 157.463L244.102 156.551C243.758 154.319 243.58 152.03 243.58 149.697H237.58ZM241.815 154.085C239.326 153.507 236.735 153.202 234.076 153.202V159.202C236.274 159.202 238.41 159.454 240.458 159.93L241.815 154.085ZM234.076 153.202C215.256 153.202 200 168.458 200 187.277H206C206 171.772 218.57 159.202 234.076 159.202V153.202ZM200 187.277C200 206.097 215.256 221.353 234.076 221.353V215.353C218.57 215.353 206 202.783 206 187.277H200ZM234.076 221.353C234.208 221.353 234.341 221.352 234.473 221.351L234.404 215.351C234.295 215.352 234.185 215.353 234.076 215.353V221.353ZM236.792 220.212L236.793 220.21L232.084 216.492L232.082 216.494L236.792 220.212ZM343.563 215.353H234.437V221.353H343.563V215.353ZM340.563 218.351V218.353H346.563V218.351H340.563Z" fill="url(#paint6_linear_102_1515)" mask="url(#path-7-inside-2_102_1515)"/>
</g>
<g filter="url(#filter4_bdd_102_1515)">
<circle cx="169.5" cy="269.5" r="14" fill="#ECECEC" stroke="url(#paint7_linear_102_1515)" stroke-width="3"/>
<circle cx="223.5" cy="269.5" r="14" fill="#ECECEC" stroke="url(#paint8_linear_102_1515)" stroke-width="3"/>
<circle cx="277.5" cy="269.5" r="14" fill="#ECECEC" stroke="url(#paint9_linear_102_1515)" stroke-width="3"/>
<circle cx="184.5" cy="311.5" r="14" fill="#ECECEC" stroke="url(#paint10_linear_102_1515)" stroke-width="3"/>
<circle cx="238.5" cy="311.5" r="14" fill="#ECECEC" stroke="url(#paint11_linear_102_1515)" stroke-width="3"/>
</g>
<defs>
<filter id="filter0_f_102_1515" x="139" y="0" width="210" height="210" filterUnits="userSpaceOnUse" color-interpolation-filters="sRGB">
<feFlood flood-opacity="0" result="BackgroundImageFix"/>
<feBlend mode="normal" in="SourceGraphic" in2="BackgroundImageFix" result="shape"/>
<feGaussianBlur stdDeviation="22" result="effect1_foregroundBlur_102_1515"/>
</filter>
<filter id="filter1_f_102_1515" x="82" y="81" width="266" height="191" filterUnits="userSpaceOnUse" color-interpolation-filters="sRGB">
<feFlood flood-opacity="0" result="BackgroundImageFix"/>
<feBlend mode="normal" in="SourceGraphic" in2="BackgroundImageFix" result="shape"/>
<feGaussianBlur stdDeviation="7" result="effect1_foregroundBlur_102_1515"/>
</filter>
<filter id="filter2_bd_102_1515" x="0" y="67" width="338" height="261" filterUnits="userSpaceOnUse" color-interpolation-filters="sRGB">
<feFlood flood-opacity="0" result="BackgroundImageFix"/>
<feGaussianBlur in="BackgroundImageFix" stdDeviation="7"/>
<feComposite in2="SourceAlpha" operator="in" result="effect1_backgroundBlur_102_1515"/>
<feColorMatrix in="SourceAlpha" type="matrix" values="0 0 0 0 0 0 0 0 0 0 0 0 0 0 0 0 0 0 127 0" result="hardAlpha"/>
<feOffset dx="-21" dy="15"/>
<feGaussianBlur stdDeviation="25"/>
<feComposite in2="hardAlpha" operator="out"/>
<feColorMatrix type="matrix" values="0 0 0 0 0.113725 0 0 0 0 0.14902 0 0 0 0 0.27451 0 0 0 0.25 0"/>
<feBlend mode="normal" in2="effect1_backgroundBlur_102_1515" result="effect2_dropShadow_102_1515"/>
<feBlend mode="normal" in="SourceGraphic" in2="effect2_dropShadow_102_1515" result="shape"/>
</filter>
<filter id="filter3_bd_102_1515" x="132" y="67" width="272" height="216.353" filterUnits="userSpaceOnUse" color-interpolation-filters="sRGB">
<feFlood flood-opacity="0" result="BackgroundImageFix"/>
<feGaussianBlur in="BackgroundImageFix" stdDeviation="7"/>
<feComposite in2="SourceAlpha" operator="in" result="effect1_backgroundBlur_102_1515"/>
<feColorMatrix in="SourceAlpha" type="matrix" values="0 0 0 0 0 0 0 0 0 0 0 0 0 0 0 0 0 0 127 0" result="hardAlpha"/>
<feOffset dx="-21" dy="15"/>
<feGaussianBlur stdDeviation="25"/>
<feComposite in2="hardAlpha" operator="out"/>
<feColorMatrix type="matrix" values="0 0 0 0 0.113438 0 0 0 0 0.148981 0 0 0 0 0.275 0 0 0 0.25 0"/>
<feBlend mode="normal" in2="effect1_backgroundBlur_102_1515" result="effect2_dropShadow_102_1515"/>
<feBlend mode="normal" in="SourceGraphic" in2="effect2_dropShadow_102_1515" result="shape"/>
</filter>
<filter id="filter4_bdd_102_1515" x="83" y="206" width="251" height="186" filterUnits="userSpaceOnUse" color-interpolation-filters="sRGB">
<feFlood flood-opacity="0" result="BackgroundImageFix"/>
<feGaussianBlur in="BackgroundImageFix" stdDeviation="7"/>
<feComposite in2="SourceAlpha" operator="in" result="effect1_backgroundBlur_102_1515"/>
<feColorMatrix in="SourceAlpha" type="matrix" values="0 0 0 0 0 0 0 0 0 0 0 0 0 0 0 0 0 0 127 0" result="hardAlpha"/>
<feOffset dx="-21" dy="15"/>
<feGaussianBlur stdDeviation="25"/>
<feComposite in2="hardAlpha" operator="out"/>
<feColorMatrix type="matrix" values="0 0 0 0 0.113438 0 0 0 0 0.148981 0 0 0 0 0.275 0 0 0 0.25 0"/>
<feBlend mode="normal" in2="effect1_backgroundBlur_102_1515" result="effect2_dropShadow_102_1515"/>
<feColorMatrix in="SourceAlpha" type="matrix" values="0 0 0 0 0 0 0 0 0 0 0 0 0 0 0 0 0 0 127 0" result="hardAlpha"/>
<feOffset dy="-7"/>
<feGaussianBlur stdDeviation="20.5"/>
<feComposite in2="hardAlpha" operator="out"/>
<feColorMatrix type="matrix" values="0 0 0 0 0.1375 0 0 0 0 0.74125 0 0 0 0 1 0 0 0 0.3 0"/>
<feBlend mode="normal" in2="effect2_dropShadow_102_1515" result="effect3_dropShadow_102_1515"/>
<feBlend mode="normal" in="SourceGraphic" in2="effect3_dropShadow_102_1515" result="shape"/>
</filter>
<linearGradient id="paint0_linear_102_1515" x1="244" y1="48" x2="244" y2="166" gradientUnits="userSpaceOnUse">
<stop stop-color="#FFE600"/>
<stop offset="1" stop-color="#FF7A00"/>
</linearGradient>
<linearGradient id="paint1_linear_102_1515" x1="244" y1="48" x2="244" y2="166" gradientUnits="userSpaceOnUse">
<stop stop-color="white"/>
<stop offset="1" stop-color="white" stop-opacity="0"/>
</linearGradient>
<linearGradient id="paint2_linear_102_1515" x1="244" y1="48" x2="244" y2="166" gradientUnits="userSpaceOnUse">
<stop stop-color="#FFD600"/>
<stop offset="1" stop-color="#FF7A00"/>
</linearGradient>
<linearGradient id="paint3_linear_102_1515" x1="190" y1="50.5" x2="190" y2="285.5" gradientUnits="userSpaceOnUse">
<stop stop-color="white"/>
<stop offset="1" stop-color="white" stop-opacity="0"/>
</linearGradient>
<linearGradient id="paint4_linear_102_1515" x1="190" y1="102" x2="190" y2="263" gradientUnits="userSpaceOnUse">
<stop stop-color="white"/>
<stop offset="1" stop-color="white" stop-opacity="0"/>
</linearGradient>
<linearGradient id="paint5_linear_102_1515" x1="297" y1="105.5" x2="297" y2="231.5" gradientUnits="userSpaceOnUse">
<stop stop-color="white"/>
<stop offset="1" stop-color="white" stop-opacity="0"/>
</linearGradient>
<linearGradient id="paint6_linear_102_1515" x1="289" y1="102" x2="289" y2="218.353" gradientUnits="userSpaceOnUse">
<stop stop-color="white"/>
<stop offset="1" stop-color="white" stop-opacity="0"/>
</linearGradient>
<linearGradient id="paint7_linear_102_1515" x1="185" y1="254" x2="154" y2="282" gradientUnits="userSpaceOnUse">
<stop stop-color="#00C2FF"/>
<stop offset="1" stop-color="#00C2FF" stop-opacity="0"/>
</linearGradient>
<linearGradient id="paint8_linear_102_1515" x1="239" y1="254" x2="208" y2="282" gradientUnits="userSpaceOnUse">
<stop stop-color="#00C2FF"/>
<stop offset="1" stop-color="#00C2FF" stop-opacity="0"/>
</linearGradient>
<linearGradient id="paint9_linear_102_1515" x1="293" y1="254" x2="262" y2="282" gradientUnits="userSpaceOnUse">
<stop stop-color="#00C2FF"/>
<stop offset="1" stop-color="#00C2FF" stop-opacity="0"/>
</linearGradient>
<linearGradient id="paint10_linear_102_1515" x1="200" y1="296" x2="169" y2="324" gradientUnits="userSpaceOnUse">
<stop stop-color="#00C2FF"/>
<stop offset="1" stop-color="#00C2FF" stop-opacity="0"/>
</linearGradient>
<linearGradient id="paint11_linear_102_1515" x1="254" y1="296" x2="223" y2="324" gradientUnits="userSpaceOnUse">
<stop stop-color="#00C2FF"/>
<stop offset="1" stop-color="#00C2FF" stop-opacity="0"/>
</linearGradient>
</defs>
</svg>
